inDegrees=no
num_controls=7
num_derivatives=13
num_iterations=147
num_multipliers=7
num_parameters=0
num_slacks=7
num_states=26
objective=0.494952
objective_accelerations=0.010875
objective_balance=0.003816
objective_effort=0.016445
objective_height=0.362754
objective_ligament=0.101062
solver_duration=1858.997709
status=Solve_Succeeded
success=true
DataType=double
version=3
OpenSimVersion=4.5
endheader
time	/jointset/ground_pelvis/pelvis_tilt/value	/jointset/ground_pelvis/pelvis_tx/value	/jointset/ground_pelvis/pelvis_ty/value	/jointset/hip_l/hip_flexion_l/value	/jointset/hip_l/hip_adduction_l/value	/jointset/hip_l/hip_rotation_l/value	/jointset/back/lumbar_extension/value	/jointset/patellofemoral_l/patellar_flexion_l/value	/jointset/knee_l/knee_flexion_l/value	/jointset/knee_l/knee_adduction_l/value	/jointset/knee_l/knee_rotation_l/value	/jointset/ankle_l/ankle_angle_l/value	/jointset/subtalar_l/subtalar_angle_l/value	/jointset/ground_pelvis/pelvis_tilt/speed	/jointset/ground_pelvis/pelvis_tx/speed	/jointset/ground_pelvis/pelvis_ty/speed	/jointset/hip_l/hip_flexion_l/speed	/jointset/hip_l/hip_adduction_l/speed	/jointset/hip_l/hip_rotation_l/speed	/jointset/back/lumbar_extension/speed	/jointset/patellofemoral_l/patellar_flexion_l/speed	/jointset/knee_l/knee_flexion_l/speed	/jointset/knee_l/knee_adduction_l/speed	/jointset/knee_l/knee_rotation_l/speed	/jointset/ankle_l/ankle_angle_l/speed	/jointset/subtalar_l/subtalar_angle_l/speed	/forceset/tau_hip_flexion_l	/forceset/tau_hip_adduction_l	/forceset/tau_hip_rotation_l	/forceset/tau_knee_flexion_l	/forceset/tau_ankle_angle_l	/forceset/tau_subtalar_angle_l	/forceset/tau_lumbar_extension	lambda_cid13_p0	lambda_cid13_p1	lambda_cid13_p2	lambda_cid13_p3	lambda_cid13_p4	lambda_cid13_p5	lambda_cid14_p0	/jointset/ground_pelvis/pelvis_tilt/accel	/jointset/ground_pelvis/pelvis_tx/accel	/jointset/ground_pelvis/pelvis_ty/accel	/jointset/hip_l/hip_flexion_l/accel	/jointset/hip_l/hip_adduction_l/accel	/jointset/hip_l/hip_rotation_l/accel	/jointset/back/lumbar_extension/accel	/jointset/patellofemoral_l/patellar_flexion_l/accel	/jointset/knee_l/knee_flexion_l/accel	/jointset/knee_l/knee_adduction_l/accel	/jointset/knee_l/knee_rotation_l/accel	/jointset/ankle_l/ankle_angle_l/accel	/jointset/subtalar_l/subtalar_angle_l/accel	gamma_cid13_p0	gamma_cid13_p1	gamma_cid13_p2	gamma_cid13_p3	gamma_cid13_p4	gamma_cid13_p5	gamma_cid14_p0
0.5	-0.03526480382605674	-0.02516619000284538	0.8942944016592964	0.5318893670074061	-0.2640428253731084	-0.2683898637453912	-0.7555200564100151	0.4264417650010784	0.4264417650010945	-0.05322174032768077	-0.1744328860671759	-0.01686950544312807	0.02696516400275351	-0.0551962026480932	-0.1420415624932629	-0.08462415698596054	0.5125777861782369	-0.05303952372125197	0.1423900514207603	-0.8461913382639953	0.4407583156213639	0.4407583156213668	0.01193185621134563	0.0007155107412477982	-0.01230937811763013	-0.06108205294442286	-0.2239917064680958	0.05453261486262145	-0.007598210729568919	-0.1093586081789705	0.09951887624303611	0.02379473274153023	0.2961205952908559	-14.04935642475441	-9.97835093545371	3.540061735167653	-0.7667489469398948	-711.5723026308705	-61.72821751423783	-23.69979632913544	0.06058756319059645	0.3610144626067088	0.0742303614720263	-0.8764322481751544	-0.01816010969869668	-0.1328509052967712	1.365292077893808	-0.593258948856396	-0.5932589488564127	-0.2768988401570586	-0.001593299705797407	0.1687185289707821	0.04625194371093032	-2.696497319703377e-09	6.190947037294189e-09	1.705525889787926e-08	-2.197145516293517e-09	8.160864337463242e-09	1.62158005461466e-09	-2.570228976732582e-09
0.51	-0.03581377459411764	-0.02656851106917311	0.8934520127071605	0.5369709146025438	-0.2645740003897804	-0.2669727827146248	-0.7639127164978963	0.4308190437343727	0.4308190437343827	-0.0531161517939106	-0.174425794930424	-0.01698433271573015	0.02635672564576989	-0.0545862297419584	-0.1384173030452117	-0.08383637910469968	0.5036676477407149	-0.05317720087333067	0.140997325595664	-0.8322551704891582	0.434624416008268	0.4346244160082621	0.009208867129772149	0.0006996460628997871	-0.01067181116722472	-0.06059242955945958	-0.2286679680506772	0.05572170695330751	-0.007619966175641768	-0.1079945759234487	0.0979154772013542	0.02456603747950731	0.3007201373691736	-14.61794943864729	-10.20768100582639	3.569665747387468	-0.5785468250592136	-713.0445768512252	-61.6690826768994	-23.67993130478509	0.06295918704591488	0.3639333237565143	0.08364160522816082	-0.9079183423201341	-0.008832478715959017	-0.1468097820281995	1.4206054510668	-0.6344072381001201	-0.6344072381013416	-0.2665441268545656	-0.002040808132834063	0.1589156365271184	0.0522927391684724	-2.300955122658394e-09	7.980343078648704e-09	1.630555328993997e-08	-2.766630113922053e-09	1.046203772964401e-08	1.539620767773197e-09	-2.307416468968236e-09
0.52	-0.03635629422657295	-0.02793442921344926	0.8926180195545923	0.5419614380731599	-0.2651060043701269	-0.2655704942142708	-0.7721634496432712	0.4351327931174289	0.4351327931174153	-0.05303710218791517	-0.174418953991691	-0.01708325634713613	0.02575357856329203	-0.05390597552700602	-0.1347609780829443	-0.08294499707243112	0.4943729612720188	-0.0532053164555784	0.1394315453340953	-0.8178059497628131	0.4280524455726143	0.4280524455725999	0.006624070660309302	0.0006654711352135104	-0.009128649878755146	-0.06002379804332363	-0.2333442296331845	0.05691079904406334	-0.007641721621896452	-0.1066305436679033	0.09631207815969682	0.02533734221757525	0.3053196794475245	-15.19028475657954	-10.43665786212659	3.599558482346097	-0.4018361034575996	-714.5811977050926	-61.61959505847649	-23.65818477666971	0.07464382495433045	0.367427565449716	0.09495119167353082	-0.9533418544099366	0.003752204267515121	-0.167461792591232	1.467902668195496	-0.6808731133679516	-0.680873113367933	-0.2492603177348875	-0.005255349573432122	0.1498373965832993	0.06205356994537729	-2.018063954489752e-09	9.128847690643522e-09	1.546357490597146e-08	-3.098326855294494e-09	1.186648600929888e-08	1.367458639407037e-09	-2.080595264271056e-09
0.53	-0.03689168049530617	-0.02926362392426417	0.8917934580586449	0.5468571418819805	-0.2656376945916588	-0.264184795846207	-0.780267122022559	0.4393786629779823	0.4393786629779988	-0.05298307493750198	-0.1744125764904166	-0.01716718998402837	0.02515657365513013	-0.0531599071929299	-0.1310725066161265	-0.08194952999203328	0.4847042487707097	-0.05311051320470454	0.1376707069921703	-0.8028446960182026	0.4210482012681728	0.4210482012681575	0.004215771907294698	0.0006025221102505749	-0.007672185637634544	-0.05935921010770334	-0.2378235723632141	0.05796923100070941	-0.007661931064484878	-0.1054596504968165	0.09493029636980972	0.02609776080261141	0.3097656644786485	-15.68938076616648	-10.67044085921521	3.626459805414618	-0.2712164497177501	-716.0741636395387	-61.60501583985821	-23.63466050344521	0.07629277620084224	0.3703749016704933	0.1045128057294855	-0.9831696440803269	0.01567343061587593	-0.1860094649590823	1.522811239400466	-0.7211984874572152	-0.7211984874572743	-0.2314530515634854	-0.007938349571019802	0.1414348676305827	0.07135412353031367	-1.68472329014162e-09	1.050197213849922e-08	1.468340131384393e-08	-3.470355108718354e-09	1.335872782263599e-08	1.275462596910266e-09	-1.829404644703598e-09
0.54	-0.03741926519298362	-0.03055577032753569	0.8909793849014025	0.5516542518265828	-0.2661677709716557	-0.262817828783533	-0.7882186669620395	0.4435522907158123	0.443552290715819	-0.05295209835414861	-0.1744070532134911	-0.01723698219255632	0.02456675316995668	-0.05234566131621448	-0.1273513165742635	-0.08084732933138833	0.4746541884258428	-0.05288254814912514	0.1356852842516238	-0.7873804618013446	0.4136040210247316	0.4136040210247152	0.002013937255128702	0.0004946262607570491	-0.006300364206351558	-0.05858691344568883	-0.2423029150931626	0.05902766295744025	-0.007682140507382931	-0.1042887573257053	0.09354851457994888	0.02685817938774773	0.3142116495098065	-16.19278646396011	-10.90389803665465	3.653798995008294	-0.1502405476308632	-717.6394808549794	-61.60110915367989	-23.6094802018728	0.0882793334824106	0.3739712804585065	0.1162979077229206	-1.029611423121467	0.03038456520863017	-0.2123786723155014	1.568498762645101	-0.7688603011679206	-0.7688603011679079	-0.2079674975651402	-0.01424471447952042	0.1329088346154634	0.08359531522413095	-1.295566161935328e-09	1.212361214943506e-08	1.39716074914128e-08	-3.887005460582082e-09	1.494810290728112e-08	1.272160947290265e-09	-1.551252119322218e-09
0.55	-0.03793840004253497	-0.03181059284626066	0.8901768514817777	0.556349049570288	-0.2666949569940111	-0.2614716753997466	-0.7960132110277195	0.4476492905164765	0.4476492905165105	-0.05294225969142299	-0.1744027121462088	-0.01729356259211402	0.02398510531469582	-0.05147216479486753	-0.1236126697893729	-0.07964263799071339	0.4642469922725542	-0.05253893149450047	0.1335226651619312	-0.7714613935651669	0.4057199340715694	0.4057199340715705	-3.009178433177281e-05	0.0003767333048518503	-0.005039901534730923	-0.05773517688080908	-0.2464494746677837	0.0600152315058375	-0.007698506904994287	-0.1032657216023994	0.09223381211455524	0.02753095633931954	0.3183204201239339	-16.66946340578804	-11.10394881823155	3.67578524272527	0.02954123201020471	-719.0085056391293	-61.55665462607438	-23.58277198267377	0.08825508500536343	0.3738881611633734	0.1250654005916455	-1.055029865257403	0.0387052647394239	-0.2216134355008973	1.613654519853563	-0.8095833683575325	-0.8095833683548059	-0.2002003699634876	-0.01008771408576855	0.118987402317134	0.08708127104715008	-9.226871176887213e-10	1.331127537886997e-08	1.309125110644686e-08	-4.276671806431798e-09	1.634487593532534e-08	1.179302855682348e-09	-1.298748754019664e-09
0.5600000000000001	-0.0384485258721623	-0.03302801354040418	0.8893868671062298	0.5609380241217068	-0.2672182358399868	-0.2601478301884732	-0.8036465556778882	0.4516651693524383	0.4516651693524436	-0.05295237727170016	-0.1743994552340428	-0.01733826388117633	0.02341219851386956	-0.05054385733176429	-0.1198709516579725	-0.07833752051599328	0.4534895499662704	-0.05210111287391362	0.1312236497440663	-0.7551405786990302	0.39737982807972	0.3973798280797385	-0.00197731133687156	0.0002777952313566699	-0.003924542107842364	-0.05683870255884269	-0.2505960342423296	0.0610028000543275	-0.007714873303005096	-0.1022426858790739	0.09091910964918885	0.02820373329100248	0.3224291907380902	-17.15103863730058	-11.30364856537562	3.698294240461746	0.2018265825562707	-720.4583827759434	-61.52388358469253	-23.55466227027863	0.09924152183388325	0.374585549760216	0.1363831345319212	-1.099660653720492	0.04922495840106886	-0.239657937949911	1.648848088636969	-0.8600641089053662	-0.8600641089053656	-0.1886056001809949	-0.01045373799747789	0.1038881856687368	0.09254286664136169	-5.693417741937366e-10	1.397816647050379e-08	1.200861964643915e-08	-4.6339573450647e-09	1.75105264954485e-08	9.789770336889348e-10	-1.077024380811699e-09
0.5700000000000001	-0.03894910076800075	-0.03420802222238011	0.888610425836986	0.5654177640974233	-0.2677366153397626	-0.2588477220064329	-0.8111147445018547	0.4555954420835154	0.4555954420835365	-0.0529813296894318	-0.1743971292862437	-0.01737251309291946	0.0228485420263142	-0.04956138146982331	-0.1161322007449887	-0.07693456021661564	0.4424052883399077	-0.05155490211382401	0.128767388969522	-0.738437845245305	0.388602852957399	0.3886028529573957	-0.003784096289570226	0.0001858704812192762	-0.002948608958676246	-0.05588034569225986	-0.2545237699338479	0.0619570417312942	-0.007730064305604418	-0.101296085421981	0.08966340490311232	0.0288142572938905	0.3263205867838934	-17.60839620597421	-11.48068350311089	3.717339798173082	0.3860211625423489	-721.7628723797488	-61.46046931260756	-23.52528282690141	0.09921036743335734	0.3733064930106904	0.1446820789556149	-1.120783345027915	0.06029805580671274	-0.2532000500374429	1.689887101413732	-0.897293800768593	-0.8972938007717539	-0.1723500649867432	-0.00878895766399463	0.09094993493356596	0.09931585587904651	-2.811900445146466e-10	1.478592821707025e-08	1.115109489132251e-08	-4.900370349914277e-09	1.844854180555947e-08	8.234849454522332e-10	-8.647854795917263e-10
0.58	-0.03943955895540513	-0.03535068606903674	0.8878485000909988	0.5697850665713007	-0.2682489369477333	-0.2575730944126796	-0.8184141257657503	0.4594357891460203	0.4594357891459921	-0.05302747698117409	-0.1743957680087395	-0.01739770216208919	0.02229483585926759	-0.0485205156455413	-0.1124019845941159	-0.0754344158646853	0.4310020495961934	-0.05088953451402262	0.1261275320817664	-0.721379066684663	0.3793946943601521	0.3793946943601268	-0.005416286129164809	8.486116539601615e-05	-0.002112513593792073	-0.05484863845718804	-0.2584515056253032	0.06291128340835508	-0.007745255308649644	-0.1003494849648756	0.08840770015706124	0.02942478129689056	0.3302119828297168	-18.0712143225669	-11.65732740998456	3.736968502045864	0.5651742691505623	-723.1559302013637	-61.40965159566041	-23.49478121432852	0.1109195143022983	0.3728785973378051	0.1558199450424319	-1.163456077190755	0.07305632634342034	-0.276377160592127	1.7200571100204	-0.9463008038905866	-0.9463008038905785	-0.1536865775601874	-0.01227065113460496	0.07592062881203705	0.1072129403390575	-7.794162585160508e-11	1.577714942122338e-08	1.058673235652914e-08	-5.048437729371617e-09	1.909010190635225e-08	7.263809755963646e-10	-6.648997511933255e-10
